<svg xmlns="http://www.w3.org/2000/svg" id="svg1" width="300" height="300" version="1.1" viewBox="0 0 79.375 79.375">
  <g id="layer1" transform="translate(-65.352 -108.744)">
    <path id="rect42" d="M67.366 110.758h75.347v75.347H67.366z" style="fill:#f0f1f3;stroke:#1a1a1a;stroke-width:4.02775;stroke-linecap:round;stroke-dasharray:none"/>
    <path id="needle" d="M76.797 176.122h21.018l2.767-1.418 33.361.046-.022 4.014-33.317-.023-2.789-1.326H76.797Z" style="fill:#1a1a1a;stroke-width:8.8829;stroke-linecap:square"/>
  </g>
  <path id="rect43-5" d="M10.744 67.735h4.075v.909h-4.075z" style="fill:#000000;stroke:none;stroke-width:23.6382;stroke-linecap:square"/>
  <path id="rect44-8" d="M16.428 61.595h4.075v.909h-4.075z" style="fill:#000000;stroke:none;stroke-width:23.6382;stroke-linecap:square" transform="rotate(5.006)"/>
  <path id="rect45-4" d="M33.962 31.899h4.037v.918h-4.037z" style="fill:#000000;stroke:none;stroke-width:23.6395;stroke-linecap:square" transform="matrix(.90292 .4298 -.44295 .89655 0 0)"/>
  <path id="rect46-0" d="M38.11-12.669h4.037v.918H38.11z" style="fill:#000000;stroke:none;stroke-width:23.6395;stroke-linecap:square" transform="matrix(.61035 .79213 -.80096 .59872 0 0)"/>
  <path id="rect47-3" d="M26.259-47.456h4.037v.918h-4.037z" style="fill:#000000;stroke:none;stroke-width:23.6395;stroke-linecap:square" transform="matrix(.27111 .96255 -.9664 .25703 0 0)"/>
  <path id="rect48-7" d="M10.115-68.293h4.037v.918h-4.037z" style="fill:#000000;stroke:none;stroke-width:23.6395;stroke-linecap:square" transform="matrix(.00017 1 -.9999 -.01443 0 0)"/>
  <path id="line1380-9-2" fill="none" stroke="#010101" stroke-linecap="round" stroke-linejoin="round" stroke-width=".016" d="M6.716 68.179h4.038" style="stroke-width:0.222049;stroke-dasharray:none"/>
  <path id="line1436-0-5" fill="none" stroke="#010101" stroke-linecap="round" stroke-linejoin="round" stroke-width=".016" d="m6.95 62.843 4.026.353" style="stroke-width:0.220496;stroke-dasharray:none"/>
  <path id="polyline1485-8-7" fill="none" stroke="#010101" stroke-linecap="round" stroke-linejoin="round" stroke-width=".016" d="m180.936 140.264.968.11-.968-.11" style="stroke-width:0.0548252;stroke-dasharray:none" transform="translate(-725.706 -506.834) scale(4.05014)"/>
  <path id="polyline1486-8-6" fill="none" stroke="#010101" stroke-linecap="round" stroke-linejoin="round" stroke-width=".016" d="m180.989 139.851.964.137-.964-.137" style="stroke-width:0.0548252;stroke-dasharray:none" transform="translate(-725.706 -506.834) scale(4.05014)"/>
  <path id="polyline1487-0-2" fill="none" stroke="#010101" stroke-linecap="round" stroke-linejoin="round" stroke-width=".016" d="m181.058 139.414.959.165-.959-.165" style="stroke-width:0.0548252;stroke-dasharray:none" transform="translate(-725.706 -506.834) scale(4.05014)"/>
  <path id="polyline1488-8-1" fill="none" stroke="#010101" stroke-linecap="round" stroke-linejoin="round" stroke-width=".016" d="m181.145 138.948.954.195-.954-.195" style="stroke-width:0.0548252;stroke-dasharray:none" transform="translate(-725.706 -506.834) scale(4.05014)"/>
  <path id="polyline1489-9-6" fill="none" stroke="#010101" stroke-linecap="round" stroke-linejoin="round" stroke-width=".016" d="m181.257 138.447 1.419.341-1.419-.341" style="stroke-width:0.0548252;stroke-dasharray:none" transform="translate(-725.706 -506.834) scale(4.05014)"/>
  <path id="polyline1490-9-1" fill="none" stroke="#010101" stroke-linecap="round" stroke-linejoin="round" stroke-width=".016" d="m181.413 137.85.936.266-.936-.266" style="stroke-width:0.0548252;stroke-dasharray:none" transform="translate(-725.706 -506.834) scale(4.05014)"/>
  <path id="polyline1491-2-1" fill="none" stroke="#010101" stroke-linecap="round" stroke-linejoin="round" stroke-width=".016" d="m181.596 137.255.924.304-.924-.304" style="stroke-width:0.0548252;stroke-dasharray:none" transform="translate(-725.706 -506.834) scale(4.05014)"/>
  <path id="polyline1492-8-5" fill="none" stroke="#010101" stroke-linecap="round" stroke-linejoin="round" stroke-width=".016" d="m181.805 136.661.911.343-.911-.343" style="stroke-width:0.0548252;stroke-dasharray:none" transform="translate(-725.706 -506.834) scale(4.05014)"/>
  <path id="polyline1493-8-7" fill="none" stroke="#010101" stroke-linecap="round" stroke-linejoin="round" stroke-width=".016" d="m182.044 136.067.896.38-.896-.38" style="stroke-width:0.0548252;stroke-dasharray:none" transform="translate(-725.706 -506.834) scale(4.05014)"/>
  <path id="line1504-2-4" fill="none" stroke="#010101" stroke-linecap="round" stroke-linejoin="round" stroke-width=".016" d="m16.344 43.552-3.645-1.745" style="stroke-width:0.222049;stroke-dasharray:none"/>
  <path id="polyline1591-4-8" fill="none" stroke="#010101" stroke-linecap="round" stroke-linejoin="round" stroke-width=".016" d="m182.627 134.849.859.46-.859-.46" style="stroke-width:0.0548252;stroke-dasharray:none" transform="translate(-725.706 -506.834) scale(4.05014)"/>
  <path id="polyline1592-2-5" fill="none" stroke="#010101" stroke-linecap="round" stroke-linejoin="round" stroke-width=".016" d="m182.97 134.242.837.5-.837-.5" style="stroke-width:0.0548252;stroke-dasharray:none" transform="translate(-725.706 -506.834) scale(4.05014)"/>
  <path id="path1593-9-6" fill="#010101" d="m16.876 34.436 3.289 2.18Z" style="stroke-width:1.55279"/>
  <path id="polyline1593-1-4" fill="none" stroke="#010101" stroke-linecap="round" stroke-linejoin="round" stroke-width=".016" d="m183.347 133.643.812.538-.812-.538" style="stroke-width:0.0548252;stroke-dasharray:none" transform="translate(-725.706 -506.834) scale(4.05014)"/>
  <path id="polyline1594-0-9" fill="none" stroke="#010101" stroke-linecap="round" stroke-linejoin="round" stroke-width=".016" d="m183.758 133.053.786.575-.786-.575" style="stroke-width:0.0548252;stroke-dasharray:none" transform="translate(-725.706 -506.834) scale(4.05014)"/>
  <path id="polyline1595-6-8" fill="none" stroke="#010101" stroke-linecap="round" stroke-linejoin="round" stroke-width=".016" d="m184.201 132.48 1.135.919-1.135-.919" style="stroke-width:0.0548252;stroke-dasharray:none" transform="translate(-725.706 -506.834) scale(4.05014)"/>
  <path id="polyline1596-9-4" fill="none" stroke="#010101" stroke-linecap="round" stroke-linejoin="round" stroke-width=".016" d="m184.665 131.934.726.648-.726-.648" style="stroke-width:0.0548252;stroke-dasharray:none" transform="translate(-725.706 -506.834) scale(4.05014)"/>
  <path id="polyline1597-9-3" fill="none" stroke="#010101" stroke-linecap="round" stroke-linejoin="round" stroke-width=".016" d="m185.153 131.411.695.681-.695-.681" style="stroke-width:0.0548252;stroke-dasharray:none" transform="translate(-725.706 -506.834) scale(4.05014)"/>
  <path id="polyline1598-4-2" fill="none" stroke="#010101" stroke-linecap="round" stroke-linejoin="round" stroke-width=".016" d="m185.665 130.913.661.715-.661-.715" style="stroke-width:0.0548252;stroke-dasharray:none" transform="translate(-725.706 -506.834) scale(4.05014)"/>
  <path id="polyline1599-0-5" fill="none" stroke="#010101" stroke-linecap="round" stroke-linejoin="round" stroke-width=".016" d="m186.194 130.446.628.743-.628-.743" style="stroke-width:0.0548252;stroke-dasharray:none" transform="translate(-725.706 -506.834) scale(4.05014)"/>
  <path id="line1610-1-3" fill="none" stroke="#010101" stroke-linecap="round" stroke-linejoin="round" stroke-width=".016" d="m33.075 22.913-2.463-3.203" style="stroke-width:0.222049;stroke-dasharray:none"/>
  <path id="polyline1725-1-8" fill="none" stroke="#010101" stroke-linecap="round" stroke-linejoin="round" stroke-width=".016" d="m187.294 129.601.556.799-.556-.799" style="stroke-width:0.0548252;stroke-dasharray:none" transform="translate(-725.706 -506.834) scale(4.05014)"/>
  <path id="polyline1726-9-3" fill="none" stroke="#010101" stroke-linecap="round" stroke-linejoin="round" stroke-width=".016" d="m187.83 129.243.523.821-.523-.821" style="stroke-width:0.0548252;stroke-dasharray:none" transform="translate(-725.706 -506.834) scale(4.05014)"/>
  <path id="polyline1727-3-2" fill="none" stroke="#010101" stroke-linecap="round" stroke-linejoin="round" stroke-width=".016" d="m188.323 128.943.489.841-.489-.841" style="stroke-width:0.0548252;stroke-dasharray:none" transform="translate(-725.706 -506.834) scale(4.05014)"/>
  <path id="polyline1728-8-7" fill="none" stroke="#010101" stroke-linecap="round" stroke-linejoin="round" stroke-width=".016" d="m188.817 128.667.459.859-.459-.859" style="stroke-width:0.0548252;stroke-dasharray:none" transform="translate(-725.706 -506.834) scale(4.05014)"/>
  <path id="polyline1729-7-0" fill="none" stroke="#010101" stroke-linecap="round" stroke-linejoin="round" stroke-width=".016" d="m189.312 128.414.64 1.312-.64-1.312" style="stroke-width:0.0548252;stroke-dasharray:none" transform="translate(-725.706 -506.834) scale(4.05014)"/>
  <path id="polyline1730-0-6" fill="none" stroke="#010101" stroke-linecap="round" stroke-linejoin="round" stroke-width=".016" d="m189.816 128.179.394.89-.394-.89" style="stroke-width:0.0548252;stroke-dasharray:none" transform="translate(-725.706 -506.834) scale(4.05014)"/>
  <path id="polyline1731-9-8" fill="none" stroke="#010101" stroke-linecap="round" stroke-linejoin="round" stroke-width=".016" d="m190.321 127.966.361.904-.361-.904" style="stroke-width:0.0548252;stroke-dasharray:none" transform="translate(-725.706 -506.834) scale(4.05014)"/>
  <path id="polyline1732-0-0" fill="none" stroke="#010101" stroke-linecap="round" stroke-linejoin="round" stroke-width=".016" d="m190.834 127.773.329.916-.329-.916" style="stroke-width:0.0548252;stroke-dasharray:none" transform="translate(-725.706 -506.834) scale(4.05014)"/>
  <path id="polyline1733-4-1" fill="none" stroke="#010101" stroke-linecap="round" stroke-linejoin="round" stroke-width=".016" d="m191.353 127.597.295.927-.295-.927" style="stroke-width:0.0548252;stroke-dasharray:none" transform="translate(-725.706 -506.834) scale(4.05014)"/>
  <path id="line1744-0-1" fill="none" stroke="#010101" stroke-linecap="round" stroke-linejoin="round" stroke-width=".016" d="m52.508 13.21-1.086-3.893" style="stroke-width:0.222049;stroke-dasharray:none"/>
  <path id="polyline1845-7-9" fill="none" stroke="#010101" stroke-linecap="round" stroke-linejoin="round" stroke-width=".016" d="m192.318 127.325.232.946-.232-.946" style="stroke-width:0.0548252;stroke-dasharray:none" transform="translate(-725.706 -506.834) scale(4.05014)"/>
  <path id="polyline1846-0-5" fill="none" stroke="#010101" stroke-linecap="round" stroke-linejoin="round" stroke-width=".016" d="m192.751 127.225.205.951-.205-.951" style="stroke-width:0.0548252;stroke-dasharray:none" transform="translate(-725.706 -506.834) scale(4.05014)"/>
  <path id="polyline1847-3-3" fill="none" stroke="#010101" stroke-linecap="round" stroke-linejoin="round" stroke-width=".016" d="m193.18 127.139.176.958-.176-.958" style="stroke-width:0.0548252;stroke-dasharray:none" transform="translate(-725.706 -506.834) scale(4.05014)"/>
  <path id="polyline1848-1-6" fill="none" stroke="#010101" stroke-linecap="round" stroke-linejoin="round" stroke-width=".016" d="m193.604 127.067.149.962-.149-.962" style="stroke-width:0.0548252;stroke-dasharray:none" transform="translate(-725.706 -506.834) scale(4.05014)"/>
  <path id="polyline1849-4-3" fill="none" stroke="#010101" stroke-linecap="round" stroke-linejoin="round" stroke-width=".016" d="m194.015 127.009.185 1.448-.185-1.448" style="stroke-width:0.0548252;stroke-dasharray:none" transform="translate(-725.706 -506.834) scale(4.05014)"/>
  <path id="polyline1850-5-1" fill="none" stroke="#010101" stroke-linecap="round" stroke-linejoin="round" stroke-width=".016" d="m194.413 126.963.097.969-.097-.969" style="stroke-width:0.0548252;stroke-dasharray:none" transform="translate(-725.706 -506.834) scale(4.05014)"/>
  <path id="polyline1851-2-5" fill="none" stroke="#010101" stroke-linecap="round" stroke-linejoin="round" stroke-width=".016" d="m194.809 126.929.073.971-.073-.971" style="stroke-width:0.0548252;stroke-dasharray:none" transform="translate(-725.706 -506.834) scale(4.05014)"/>
  <path id="polyline1852-4-3" fill="none" stroke="#010101" stroke-linecap="round" stroke-linejoin="round" stroke-width=".016" d="m195.195 126.905.048.972-.048-.972" style="stroke-width:0.0548252;stroke-dasharray:none" transform="translate(-725.706 -506.834) scale(4.05014)"/>
  <path id="polyline1853-3-4" fill="none" stroke="#010101" stroke-linecap="round" stroke-linejoin="round" stroke-width=".016" d="m195.567 126.892.023.973-.023-.973" style="stroke-width:0.0548252;stroke-dasharray:none" transform="translate(-725.706 -506.834) scale(4.05014)"/>
  <path id="line1864-9-0" fill="none" stroke="#010101" stroke-linecap="round" stroke-linejoin="round" stroke-width=".016" d="M67.819 11.118V7.076" style="stroke-width:0.222049;stroke-dasharray:none"/>
  <path id="text2-3" d="M24.287 43.03v-.588L25.97 40.2q.146-.192.226-.398.083-.206.083-.388v-.007q0-.288-.17-.448-.169-.159-.48-.159-.292 0-.478.176-.183.172-.222.49v.004h-.7v-.003q.09-.624.454-.965.365-.345.939-.345.65 0 1.005.328.355.328.355.929v.003q0 .256-.106.537-.106.28-.295.535l-1.397 1.897h1.825v.644zm4.96.05q-.69 0-1.035-.369-.342-.371-.342-1.002v-2.192q0-.64.348-1.006.349-.364 1.029-.364.683 0 1.028.364.348.362.348 1.006v2.192q0 .64-.348 1.005-.345.365-1.028.365zm0-.644q.371 0 .534-.193.166-.195.166-.534v-2.192q0-.342-.166-.534-.163-.193-.534-.193-.372 0-.538.193-.162.192-.162.534v2.192q0 .339.162.534.166.193.538.193zm3.616.643q-.69 0-1.035-.368-.342-.371-.342-1.002v-2.192q0-.64.348-1.006.349-.364 1.029-.364.683 0 1.028.364.348.362.348 1.006v2.192q0 .64-.348 1.005-.345.365-1.028.365zm0-.643q.371 0 .534-.193.166-.195.166-.534v-2.192q0-.342-.166-.534-.163-.193-.534-.193-.372 0-.538.193-.162.192-.162.534v2.192q0 .339.162.534.166.193.538.193z" style="font-size:6.79381px;stroke-width:23.6381;stroke-linecap:square" transform="scale(.85174 1.17407)"/>
  <path id="text3-7" d="M19.052 52.371v2.386h-.335v-2.022l-.34.209v-.346l.34-.227zm1.222 2.411q-.341 0-.512-.182-.169-.184-.169-.496V53.02q0-.316.173-.497.172-.18.508-.18.338 0 .51.18.171.179.171.497v1.085q0 .317-.172.497-.17.181-.509.181zm0-.318q.184 0 .265-.096.082-.096.082-.264V53.02q0-.169-.082-.264-.08-.095-.265-.095-.183 0-.266.095-.08.095-.08.264v1.085q0 .168.08.264.083.096.266.096zm1.79.318q-.342 0-.513-.182-.169-.184-.169-.496V53.02q0-.316.173-.497.172-.18.508-.18.338 0 .51.18.171.179.171.497v1.085q0 .317-.172.497-.17.181-.509.181zm0-.318q.183 0 .264-.096.082-.096.082-.264V53.02q0-.169-.082-.264-.08-.095-.265-.095-.184 0-.266.095-.08.095-.08.264v1.085q0 .168.08.264.082.096.266.096z" style="font-size:3.36119px;stroke-width:23.6382;stroke-linecap:square" transform="scale(.85174 1.17407)"/>
  <path id="text5-0" d="M19.647 60.603q-.693 0-1.04-.37-.344-.374-.344-1.007v-2.204q0-.644.35-1.01.35-.368 1.034-.368.687 0 1.034.367.35.364.35 1.01v2.205q0 .643-.35 1.01-.347.367-1.034.367zm0-.647q.374 0 .537-.193.167-.197.167-.537v-2.204q0-.344-.167-.537-.163-.194-.537-.194-.373 0-.54.194-.163.193-.163.537v2.204q0 .34.163.537.167.193.54.193z" style="font-size:6.82908px;stroke-width:23.6382;stroke-linecap:square" transform="scale(.85174 1.17407)"/>
  <path id="text4-5" d="M41.004 28.531q-.408 0-.716-.146-.306-.149-.491-.428-.186-.278-.24-.676h.69q.047.311.246.457.2.143.511.143.335 0 .52-.18.187-.178.187-.503v-.146q0-.362-.176-.558-.176-.199-.498-.199h-.341v-.643h.341q.286 0 .438-.17.156-.169.156-.477v-.15q0-.285-.166-.44-.162-.156-.464-.156-.256 0-.435.146-.176.142-.242.454h-.687q.103-.597.458-.922.358-.329.906-.329.623 0 .965.329.342.328.342.925v.08q0 .362-.196.63-.196.266-.554.392.395.083.61.388.22.302.22.77v.079q0 .634-.362.982t-1.022.348zm3.722 0q-.69 0-1.035-.368-.342-.372-.342-1.002v-2.193q0-.64.349-1.005.348-.365 1.028-.365.683 0 1.028.365.349.362.349 1.005v2.193q0 .64-.349 1.005-.345.365-1.028.365zm0-.643q.372 0 .534-.193.166-.195.166-.534v-2.193q0-.341-.166-.534-.162-.192-.534-.192-.371 0-.537.192-.163.193-.163.534v2.193q0 .339.163.534.166.193.537.193zm3.616.643q-.69 0-1.035-.368-.342-.372-.342-1.002v-2.193q0-.64.349-1.005.348-.365 1.028-.365.683 0 1.028.365.349.362.349 1.005v2.193q0 .64-.349 1.005-.345.365-1.028.365zm0-.643q.372 0 .534-.193.166-.195.166-.534v-2.193q0-.341-.166-.534-.162-.192-.534-.192t-.537.192q-.163.193-.163.534v2.193q0 .339.163.534.165.193.537.193z" style="font-size:6.79381px;stroke-width:23.6381;stroke-linecap:square" transform="scale(.85174 1.17407)"/>
  <path id="text6-9" d="M60.09 20.112v-.587l1.619-3.494h.696l-1.579 3.454h2.365v.627zm2.08.743v-2.84h.66v2.84zm3.227.046q-.69 0-1.035-.368-.341-.372-.341-1.002v-2.193q0-.64.348-1.005.348-.365 1.028-.365.684 0 1.029.365.348.362.348 1.005v2.193q0 .64-.348 1.005-.345.365-1.029.365zm0-.643q.372 0 .534-.193.166-.195.166-.534v-2.193q0-.341-.166-.534-.162-.192-.534-.192-.371 0-.537.192-.163.193-.163.534v2.193q0 .339.163.534.166.193.537.193zm3.616.643q-.69 0-1.035-.368-.341-.372-.341-1.002v-2.193q0-.64.348-1.005.348-.365 1.028-.365.684 0 1.029.365.348.362.348 1.005v2.193q0 .64-.348 1.005-.345.365-1.029.365zm0-.643q.372 0 .534-.193.166-.195.166-.534v-2.193q0-.341-.166-.534-.162-.192-.534-.192-.371 0-.537.192-.163.193-.163.534v2.193q0 .339.163.534.166.193.537.193z" style="font-size:6.79381px;stroke-width:23.6381;stroke-linecap:square" transform="scale(.85174 1.17407)"/>
  <path id="text7-2" d="M76.451 19.19q-.55 0-.905-.315-.352-.318-.442-.895v-.004h.677v.004q.037.265.212.414.176.146.458.146.325 0 .501-.215.18-.22.18-.614v-.405q0-.395-.18-.61-.176-.216-.5-.216-.177 0-.34.1-.162.1-.284.278h-.617v-2.54h2.458v.643h-1.782v1.085q.126-.103.282-.16.156-.056.319-.056.63 0 .975.388.345.385.345 1.088v.405q0 .706-.355 1.095-.355.384-1.002.384zm3.729 0q-.69 0-1.035-.368-.342-.371-.342-1.002v-2.192q0-.64.349-1.006.348-.364 1.028-.364.683 0 1.028.364.349.362.349 1.006v2.192q0 .64-.349 1.005-.345.365-1.028.365zm0-.643q.371 0 .534-.193.166-.195.166-.534v-2.192q0-.342-.166-.535-.163-.192-.534-.192-.372 0-.537.192-.163.193-.163.535v2.192q0 .339.163.534.165.193.537.193zm3.616.643q-.69 0-1.035-.368-.342-.371-.342-1.002v-2.192q0-.64.348-1.006.349-.364 1.029-.364.683 0 1.028.364.348.362.348 1.006v2.192q0 .64-.348 1.005-.345.365-1.028.365zm0-.643q.371 0 .534-.193.166-.195.166-.534v-2.192q0-.342-.166-.535-.163-.192-.534-.192-.372 0-.538.192-.162.193-.162.535v2.192q0 .339.162.534.166.193.538.193z" style="font-size:6.79381px;stroke-width:23.6381;stroke-linecap:square" transform="scale(.85174 1.17407)"/>
  <path id="path3" d="m22.723 34.563 17.418 11.764 3.086.374 27.62 18.71-2.265 3.314-27.596-18.666-1.569-2.66L22 35.635Z" style="fill:#ff0000;stroke-width:8.8829;stroke-linecap:square"/>
  <path id="text8-1" d="m10.942 16.028 2.72-7.378h.883l2.72 7.378h-1.117l-2.045-5.952-2.045 5.952zm1.253-1.619v-.984h3.882v.984z" style="font-size:10.3916px;stroke-width:18.13799968;stroke-linecap:square;stroke-dasharray:none" transform="scale(1.02851 .97228)"/>
  <circle id="path2" cx="133.891" cy="176.734" r="5.395" style="fill:#1a1a1a;stroke:none;stroke-width:5.29167;stroke-linecap:square;stroke-dasharray:none" transform="translate(-65.352 -108.744)"/>
<style>
        #needle {
  animation: amps 10s infinite alternate;
  transform-origin: right;
  transform-box: fill-box;
}
@keyframes amps {
  0%,20% {
    transform: rotate(0deg);
  }

  30% {
    transform: rotate(80deg);
  }

  40% {
    transform: rotate(90deg);
  }
  45% {
    transform: rotate(70deg);
  }

  55% {
    transform: rotate(50deg);
  }

  60% {
    transform: rotate(40deg);
  }

  100% {
    transform: rotate(45deg);
  }
}
    </style>
</svg>
